<?xml version="1.0" standalone="no"?>
<!DOCTYPE svg PUBLIC "-//W3C//DTD SVG 20010904//EN"
 "http://www.w3.org/TR/2001/REC-SVG-20010904/DTD/svg10.dtd">
<svg version="1.0" xmlns="http://www.w3.org/2000/svg"
 width="512.000000pt" height="512.000000pt" viewBox="0 0 512.000000 512.000000"
 preserveAspectRatio="xMidYMid meet">
<metadata>
Created by potrace 1.14, written by Peter Selinger 2001-2017
</metadata>
<g transform="translate(0.000000,512.000000) scale(0.100000,-0.100000)"
fill="#000000" stroke="none">
<path d="M2838 4948 c-9 -7 -101 -134 -205 -283 -346 -496 -473 -679 -603
-865 -71 -102 -138 -198 -150 -215 -27 -38 -377 -540 -579 -830 -84 -121 -159
-229 -167 -240 -91 -123 -174 -254 -174 -276 0 -14 9 -37 21 -50 l21 -24 655
-3 655 -2 -6 -93 c-4 -50 -8 -105 -10 -122 -2 -16 -7 -77 -11 -134 -4 -57 -8
-111 -10 -120 -1 -9 -6 -63 -10 -121 -3 -58 -8 -121 -10 -140 -2 -19 -6 -75
-10 -125 -4 -49 -9 -103 -10 -120 -1 -16 -6 -70 -9 -120 -4 -49 -8 -110 -11
-135 -2 -25 -7 -83 -10 -130 -4 -47 -8 -101 -10 -120 -2 -19 -7 -73 -10 -120
-3 -47 -8 -105 -10 -130 -16 -181 -16 -199 -1 -229 20 -37 73 -51 106 -28 12
8 55 64 96 123 41 60 82 118 90 129 8 11 34 47 57 81 23 33 103 147 177 253
74 106 145 209 158 228 13 19 108 155 210 302 211 301 364 521 564 809 75 108
147 211 158 227 78 110 256 365 309 443 54 80 62 97 57 124 -3 17 -16 39 -28
49 -20 18 -51 19 -671 19 l-649 0 6 93 c4 50 9 110 11 132 2 22 7 78 10 125 3
47 8 108 10 135 8 86 14 157 20 245 4 47 8 101 10 120 2 19 7 76 10 125 12
165 17 224 30 375 2 25 6 83 10 130 3 47 8 101 10 120 7 67 19 245 19 303 1
50 -3 62 -23 78 -27 22 -70 25 -93 7z"/>
</g>
</svg>
